<svg width="24" height="24" xmlns="http://www.w3.org/2000/svg" enable-background="new 0 0 24 24" fill="#000000">
  <g>
   <title>Layer 1</title>
   <g id="svg_1">
    <path d="m0,0l24,0l0,24l-24,0l0,-24z" fill="none" id="svg_2"/>
   </g>
   <ellipse stroke="#000" stroke-width="0" ry="7.99743" rx="6.34171" id="svg_5" cy="11.36749" cx="11.96876" fill="#462735"/>
   <g id="svg_3">
    <path fill="#000000" d="m12,12c-1.1,0 -2,-0.9 -2,-2s0.9,-2 2,-2c1.1,0 2,0.9 2,2s-0.9,2 -2,2zm6,-1.8c0,-3.63 -2.65,-6.2 -6,-6.2s-6,2.57 -6,6.2c0,2.34 1.95,5.44 6,9.14c4.05,-3.7 6,-6.8 6,-9.14zm-6,-8.2c4.2,0 8,3.22 8,8.2c0,3.32 -2.67,7.25 -8,11.8c-5.33,-4.55 -8,-8.48 -8,-11.8c0,-4.98 3.8,-8.2 8,-8.2z" id="svg_4"/>
   </g>
   <ellipse stroke="#000" ry="2" rx="2" id="svg_7" cy="10" cx="11.99997" stroke-width="0" fill="#000000"/>
  </g>
 
 </svg>