<svg xmlns="http://www.w3.org/2000/svg" enable-background="new 0 0 24 24" height="24px" viewBox="0 0 24 24" width="24px" fill="#000000">
  <g>
    <rect fill="none" height="24" width="24" />
  </g>
  <g>
    <path fill="rgb(83, 83, 83)" d="m12.02643,2c5.53457,0 10.02641,4.46601 10.02641,9.96876s-4.49183,9.9687 -10.02641,9.9687s-10.02643,-4.46599 -10.02643,-9.9687s4.49184,-9.96876 10.02643,-9.96876zm0,16.44839c3.31874,0 6.01584,-2.68156 6.01584,-5.9812l-2.00527,0c0,2.20309 -1.79473,3.98747 -4.01057,3.98747s-4.01057,-1.78438 -4.01057,-3.98747c0,-2.233 1.85489,-4.07722 4.171,-3.97753l-1.57415,1.56509l1.41373,1.41556l4.01057,-3.9875l-4.01057,-3.98751l-1.41373,1.4056l1.60423,1.595c-3.47917,-0.10966 -6.20636,2.66166 -6.20636,5.97128c0,3.29964 2.69711,5.9812 6.01586,5.9812z" id="svg_4"/>
  </g>
</svg>